<?xml version="1.0" encoding="utf-8"?>
<!-- Generator: Adobe Illustrator 27.0.0, SVG Export Plug-In . SVG Version: 6.00 Build 0)  -->
<svg version="1.1" id="Layer_1" xmlns="http://www.w3.org/2000/svg" xmlns:xlink="http://www.w3.org/1999/xlink" x="0px" y="0px"
	 viewBox="0 0 595.28 841.89" style="enable-background:new 0 0 595.28 841.89;" xml:space="preserve">
<path d="M208.57,236.32c-0.43,0.17-0.79,0.46-1.08,0.81c-10.53,7.96-19.96,17.3-28.06,27.72c-0.86,0.35-1.45,1.13-1.62,2.06
	c-18.7,24.94-29.79,55.89-29.79,89.39l0,25.04c0,0.02-0.01,0.04-0.01,0.06c0,0.02,0.01,0.04,0.01,0.05l0,29.03c0,0.01,0,0.01,0,0.02
	c0,0.01,0,0.01,0,0.02l0,29.02c0,0.02-0.01,0.05-0.01,0.07c0,0.02,0.01,0.04,0.01,0.07l0,29c0,0.02-0.01,0.03-0.01,0.04
	c0,0.02,0.01,0.03,0.01,0.04l0,16.9c0,4.02,0.21,8,0.52,11.94c-0.01,0.08-0.05,0.16-0.05,0.24c0,0.18,0.07,0.34,0.1,0.5
	c6.49,76.36,70.71,136.54,148.73,136.54c82.3,0,149.28-66.95,149.31-149.25l0.01-129.35c0-4.07-0.21-8.09-0.53-12.08
	c0.02-0.14,0.08-0.27,0.08-0.42c0-0.33-0.08-0.63-0.19-0.93c-0.9-10.08-2.81-19.87-5.62-29.28c-0.01-0.03-0.02-0.07-0.03-0.1
	c-5.21-17.38-13.5-33.43-24.24-47.52c-0.1-1.11-0.83-2.01-1.85-2.35c-8.01-10.08-17.26-19.14-27.58-26.87
	c-0.39-0.73-1.09-1.24-1.94-1.38c-8.79-6.37-18.29-11.82-28.37-16.18c-0.09-0.04-0.17-0.08-0.26-0.12
	c-9.05-3.89-18.55-6.92-28.4-8.97c-0.47-0.36-1.03-0.62-1.66-0.62c-0.28,0-0.53,0.08-0.79,0.16c-8.96-1.7-18.19-2.63-27.63-2.65
	c-0.23-0.06-0.46-0.14-0.71-0.14c-0.29,0-0.56,0.08-0.83,0.17C263.35,207.29,233.09,218.13,208.57,236.32z M441.13,356.3l0,13.8
	c-46.09-1.23-83.21-39.08-83.21-85.45v-58.72c8.34,3.89,16.23,8.56,23.61,13.91v44.81c0,33.23,26.33,60.42,59.22,61.83
	C440.98,349.73,441.13,353,441.13,356.3z M441.13,375.61l0,23.61c-62.14-1.24-112.32-52.14-112.32-114.57v-68.64
	c8.15,1.83,16.05,4.33,23.61,7.48v61.16C352.42,334.06,392.01,374.38,441.13,375.61z M441.13,404.73l0,23.61
	c-78.2-1.24-141.44-65.2-141.44-143.69c0-0.03-0.01-0.05-0.01-0.07v-72.02c8.05,0.13,15.94,0.93,23.63,2.34v69.76
	C323.3,350.12,375.95,403.49,441.13,404.73z M382.19,512.77v88.81c-7.73,5.67-16.05,10.58-24.85,14.64v-64.64
	C368.72,541.15,377.39,527.82,382.19,512.77z M382.19,485.55c0,0.04-0.02,0.07-0.02,0.1c0,47-38.24,85.24-85.24,85.24
	c-46.44,0-84.29-37.33-85.2-83.56c51.77-23.48,87.95-75.67,87.95-135.99v-26.69c11.94,42.86,42.56,77.99,82.51,96.04V485.55z
	 M236.44,551.51v64.32c-8.8-4.13-17.12-9.11-24.85-14.86v-88.42C216.37,527.66,225.04,541.04,236.44,551.51z M294.17,351.35
	c0,77.95-62.71,141.83-140.32,143.66c-0.2-3.09-0.34-6.2-0.34-9.34l0-14.27c64.78-1.65,117.04-54.92,117.04-120.06V215.03
	c7.68-1.45,15.56-2.28,23.61-2.46V351.35z M178.24,497.94v68.19c-12.97-19.11-21.46-41.49-23.95-65.63
	C162.45,500.29,170.45,499.42,178.24,497.94z M212.33,240.4c7.37-5.42,15.27-10.16,23.61-14.11v125.06
	c0,46.05-36.73,83.79-82.42,85.43l0-23.62c32.67-1.62,58.81-28.79,58.81-61.82V240.4z M153.52,442.28
	c48.73-1.64,87.92-41.86,87.92-90.94V223.8c7.56-3.2,15.46-5.73,23.61-7.61v135.16c0,62.1-49.79,112.9-111.54,114.55L153.52,442.28z
	 M206.82,244.66v106.69c0,29.99-23.66,54.69-53.3,56.31l0-23.7c16.6-1.58,29.69-15.65,29.69-32.61v-82.41
	C190.11,259.95,198.03,251.79,206.82,244.66z M177.7,276.59v74.75c0,13.94-10.62,25.55-24.18,27.1l0-22.15
	C153.52,326.84,162.44,299.42,177.7,276.59z M182.48,572.03v-74.94c8.59-1.89,16.91-4.54,24.88-7.85v108.42
	C198.05,590.18,189.68,581.58,182.48,572.03z M240.67,617.75v-62.59c15.38,12.47,34.96,19.96,56.25,19.96
	c21.27,0,40.81-7.47,56.18-19.91v62.91c-17.16,7.25-36.02,11.27-55.79,11.27C277.22,629.4,258.07,625.23,240.67,617.75z
	 M386.43,598.33V422.56c7.97,3.31,16.29,5.93,24.88,7.82v142.73C404.08,582.51,395.72,590.97,386.43,598.33z M415.54,567.32V431.25
	c8.31,1.58,16.86,2.46,25.58,2.59l0,51.81C441.11,515.97,431.64,544.11,415.54,567.32z M416.16,275.42
	c7.24,10.61,13.08,22.24,17.3,34.62c-10.26-4.03-17.3-14.03-17.3-25.39V275.42z M410.65,267.93v16.72
	c0,15.08,10.34,28.16,24.81,31.78c2.29,7.92,3.94,16.11,4.84,24.53c-29.64-1.63-53.26-26.26-53.26-56.3v-40.62
	C395.81,251.05,403.73,259.08,410.65,267.93z M297.33,143.46c-117.36,0-212.84,95.48-212.84,212.84l0,129.37
	c0.04,117.31,95.52,212.75,212.83,212.75s212.79-95.44,212.83-212.76l0.01-129.37C510.16,238.94,414.69,143.46,297.33,143.46z
	 M504.65,485.67c-0.04,114.28-93.05,207.25-207.33,207.25S90.03,599.95,89.99,485.67l0-129.37C90,241.98,183,148.97,297.33,148.97
	s207.33,93.01,207.33,207.33L504.65,485.67z M130.99,396.04l-11.52,6.67l11.52,6.7l0.01,3.22l-14.63-8.52h-10.91v-2.77h10.91
	l14.63-8.52L130.99,396.04z M112.02,419.7c-2.1,0-3.74,0.61-4.87,1.83c-1.12,1.2-1.69,2.91-1.69,5.1v4.24
	c0,4.55,2.27,6.96,6.56,6.96h12.32c2.29,0,4-0.55,5.06-1.65c1.08-1.1,1.6-2.84,1.6-5.32v-4.24c0-2.45-0.52-4.18-1.6-5.28
	c-1.07-1.09-2.77-1.64-5.06-1.64H112.02z M124.26,422.47c2.74,0,3.96,1.27,3.96,4.12v4.34c0,1.45-0.31,2.52-0.92,3.16
	c-0.6,0.63-1.62,0.96-3.04,0.96h-12.24c-2.62,0-3.79-1.27-3.79-4.12v-4.34c0-2.85,1.19-4.12,3.86-4.12H124.26z M106.96,464.46
	c-1-1.23-1.5-2.98-1.5-5.21v-3.79c0-2.45,0.47-4.21,1.44-5.36c1.1-1.31,2.94-1.98,5.46-1.98H131v2.77h-18.3
	c-1.67,0-2.84,0.33-3.49,0.99c-0.65,0.66-0.98,1.87-0.98,3.59v3.72c0,1.74,0.33,2.95,0.98,3.62c0.64,0.66,1.8,0.99,3.45,0.99H131
	v2.77h-18.64C109.93,466.58,108.11,465.87,106.96,464.46z M114.38,513.72l12.57-1.46c1.95-0.23,3.42-0.99,4.4-2.27
	c0.96-1.27,1.35-2.79,1.15-4.52L131.05,493l-25.37,2.94l1.44,12.4c0.21,1.85,0.96,3.28,2.22,4.27c1.01,0.79,2.3,1.18,3.86,1.18
	C113.57,513.79,113.97,513.77,114.38,513.72z M128.62,496.07l1.12,9.64c0.11,0.98-0.01,1.79-0.38,2.39
	c-0.46,0.78-1.34,1.24-2.69,1.39l-12.63,1.46c-1.15,0.13-2.08-0.07-2.87-0.6c-0.75-0.51-1.17-1.29-1.3-2.38l-1.11-9.61
	L128.62,496.07z M114.99,533.2l2.91,10.18l-2.67,0.76l-2.94-10.31c-0.52-1.81-0.39-3.42,0.38-4.77c0.77-1.35,2.03-2.28,3.75-2.77
	l12.73-3.64c1.82-0.52,3.41-0.45,4.71,0.21c1.44,0.74,2.46,2.14,3.05,4.18l2.9,10.15l-2.67,0.76l-2.92-10.22
	c-0.32-1.14-0.86-1.91-1.58-2.29c-0.74-0.39-1.64-0.43-2.73-0.11l-5.09,1.45l3.88,13.57l-2.69,0.69l-3.86-13.5l-4.81,1.37
	c-1.06,0.3-1.78,0.81-2.19,1.57C114.73,531.23,114.68,532.12,114.99,533.2z M134.19,567.56l-2.15,0.99
	c-1.06,0.49-2.05,0.73-2.96,0.73c-0.54,0-1.05-0.09-1.53-0.26c-1.48-0.53-2.72-1.85-3.68-3.94l-4.38-9.48l2.52-1.16l4.38,9.48
	c0.6,1.3,1.26,2.11,1.96,2.38c0.69,0.28,1.49,0.2,2.43-0.24l2.15-0.99c2.05-0.95,2.47-2.41,1.39-4.77l-1.52-3.29
	c-0.92-2-1.2-3.74-0.83-5.18c0.39-1.5,1.46-2.66,3.18-3.46l1.83-0.84c1.85-0.86,3.56-0.96,5.05-0.29c1.45,0.65,2.6,1.87,3.4,3.61
	l4.38,9.48l-2.52,1.16L142.9,552c-0.55-1.18-1.21-1.94-1.97-2.25c-0.75-0.31-1.65-0.22-2.73,0.29l-1.68,0.78
	c-0.97,0.45-1.54,1.04-1.74,1.81c-0.21,0.82-0.01,1.89,0.58,3.18l1.53,3.32c0.85,1.84,1.03,3.52,0.55,5
	C136.96,565.64,135.86,566.79,134.19,567.56z M138.6,585.78l5.87,8.81l-2.31,1.54l-5.94-8.92c-1.04-1.57-1.41-3.14-1.08-4.66
	c0.32-1.52,1.24-2.79,2.73-3.78l11.01-7.33c1.58-1.05,3.11-1.46,4.56-1.23c1.6,0.26,3,1.29,4.17,3.05l5.85,8.78l-2.31,1.54
	l-5.89-8.85c-0.66-0.99-1.4-1.56-2.2-1.71c-0.83-0.14-1.69,0.09-2.64,0.72l-4.41,2.94l7.82,11.75l-2.35,1.47l-7.78-11.69l-4.16,2.77
	c-0.92,0.61-1.45,1.32-1.61,2.16C137.76,583.98,137.98,584.84,138.6,585.78z M177.27,597.99l-8.14-8.74l-18.69,17.4l1.89,2.03
	l6.97-6.49l1.55,15.6l3.18,3.49l-1.71-16.84l4.07,4.37c1.24,1.33,2.64,2.03,4.17,2.11c1.59,0.08,2.98-0.51,4.28-1.72l2.36-2.2
	c1.44-1.34,2.17-2.82,2.17-4.4C179.38,601.04,178.67,599.49,177.27,597.99z M170.71,608.11c-0.81-0.01-1.56-0.41-2.31-1.21
	l-6.23-6.7c-0.12-0.13-0.24-0.24-0.36-0.34l7.19-6.69l6.24,6.71c0.87,0.94,1.32,1.84,1.32,2.69c0,0.84-0.37,1.6-1.16,2.33
	l-2.54,2.37C172.23,607.85,171.49,608.13,170.71,608.11z M203.78,620.61l-22.22,13.27c-0.32,0.2-1.03,0.63-1.72,0.63
	c-0.28,0-0.55-0.07-0.79-0.26c-0.83-0.64-0.42-2.01-0.27-2.52l7.25-24.85l2.36,1.83l-6.41,21.76l19.43-11.69L203.78,620.61z
	 M215.05,627.09l9.26,5.05l-1.33,2.43l-9.33-5.09c-1.04-0.57-1.96-0.73-2.74-0.49c-0.8,0.25-1.45,0.86-2,1.87l-2.54,4.65l12.39,6.76
	l-1.4,2.4l-12.32-6.72l-2.39,4.39c-0.53,0.97-0.67,1.84-0.42,2.66c0.24,0.83,0.84,1.49,1.83,2.03l9.29,5.07l-1.33,2.43l-9.41-5.14
	c-1.65-0.9-2.71-2.12-3.13-3.62c-0.42-1.49-0.2-3.05,0.66-4.62l6.34-11.62c0.91-1.66,2.07-2.74,3.46-3.21
	C211.47,625.83,213.19,626.08,215.05,627.09z M256.57,643.14l-0.03-0.23l-0.13,0.19c-0.48-0.09-1.3-0.07-1.95,0.91l-15.21,21.43
	l3.11,0.78l4.26-6.23l10.86,2.64l0.98,7.49l3.05,0.74l-3.63-26.03C257.7,643.66,257.01,643.27,256.57,643.14z M248.35,657.56
	l7.12-10.32l1.54,12.42L248.35,657.56z M308.5,661.86c-0.28-0.43-0.63-0.8-1.03-1.09c0.98-0.83,1.78-2.25,1.73-4.67l-0.04-2.04
	c-0.05-2.27-0.75-3.93-2.1-4.94c-1.06-0.79-2.5-1.15-4.37-1.13l-12.18,0.25l0.53,25.54l12.51-0.26c1.96-0.04,3.46-0.64,4.46-1.77
	c0.98-1.11,1.46-2.74,1.41-4.83l-0.03-1.66C309.36,663.85,309.06,662.71,308.5,661.86z M305.41,651.33
	c0.67,0.49,1.02,1.42,1.05,2.77l0.04,2.09c0.05,2.27-1.01,3.3-3.43,3.35l-9.55,0.2l-0.18-8.78l9.5-0.2
	C303.98,650.75,304.86,650.93,305.41,651.33z M293.75,670.95l-0.17-8.44l9.69-0.2c1.2-0.03,2.02,0.25,2.6,0.85
	c0.53,0.54,0.8,1.27,0.82,2.22l0.04,1.69c0.02,1.18-0.25,2.07-0.83,2.71c-0.57,0.63-1.44,0.95-2.66,0.98L293.75,670.95z
	 M339.28,666.12l0.51,2.73l-10.54,1.96c-0.51,0.1-1,0.14-1.47,0.14c-1.23,0-2.32-0.33-3.24-0.98c-1.27-0.89-2.07-2.24-2.4-4
	l-2.42-13.01c-0.34-1.86-0.12-3.44,0.66-4.67c0.87-1.36,2.36-2.25,4.45-2.64l10.37-1.93l0.51,2.73l-10.45,1.94
	c-1.18,0.22-1.98,0.66-2.43,1.35c-0.46,0.7-0.58,1.59-0.37,2.71l0.97,5.21l13.88-2.58l0.43,2.74l-13.8,2.56l0.91,4.92
	c0.2,1.08,0.64,1.85,1.35,2.33c0.71,0.48,1.59,0.62,2.69,0.42L339.28,666.12z M352.28,638.1l-0.15-0.17l0,0.23
	c-0.45,0.18-1.12,0.66-1.12,1.83l-0.85,26.27l3.02-1.06l0.11-7.55l10.52-3.79l4.95,5.71l2.95-1.06l-17.4-19.7
	C353.52,637.91,352.72,637.97,352.28,638.1z M353.4,654.66l0.24-12.53l8.15,9.51L353.4,654.66z M394.39,638.63
	c1.2,2.12,1.47,4.05,0.81,5.74c-0.58,1.47-1.86,2.77-3.8,3.87l-3.3,1.86c-1.73,0.98-3.21,1.46-4.5,1.46c-0.3,0-0.6-0.03-0.88-0.08
	c-1.68-0.32-3.17-1.59-4.4-3.78l-9.16-16.23l2.42-1.36l8.99,15.94c0.82,1.45,1.69,2.31,2.58,2.55c0.89,0.24,2.11-0.07,3.6-0.91
	l3.24-1.83c1.51-0.85,2.41-1.74,2.67-2.63c0.26-0.88-0.02-2.06-0.83-3.5l-9.01-15.97l2.42-1.36L394.39,638.63z M400.68,614.43
	l14.04,17.92l-2.18,1.71l-14.05-17.92l-5.49,4.31l-1.71-2.18l13.17-10.32l1.71,2.18L400.68,614.43z M411.86,600.83l17.75,18.36
	l-2,1.93l-17.75-18.36L411.86,600.83z M440.58,589.92l-9.01,10.93l8.65,7.13l-1.76,2.14l-15.35-12.66c-1.09-0.9-1.72-2.15-1.87-3.73
	c-0.17-1.71,0.33-3.27,1.47-4.66l6.86-8.32l2.14,1.76l-6.76,8.19c-0.71,0.86-1.02,1.72-0.95,2.63c0.06,0.9,0.4,1.59,1.02,2.11
	l4.4,3.63l9.01-10.93L440.58,589.92z M462.98,572.47c0.24,1.56-0.21,3.33-1.34,5.26l-1.92,3.27c-1.24,2.12-2.53,3.39-3.95,3.89
	c-0.5,0.18-1.03,0.27-1.58,0.27c-1.24,0-2.62-0.44-4.12-1.32l-16.08-9.43l1.4-2.39l15.79,9.25c1.44,0.84,2.62,1.15,3.51,0.9
	c0.9-0.24,1.79-1.12,2.66-2.6l1.88-3.21c0.88-1.5,1.21-2.71,0.98-3.62c-0.22-0.9-1.05-1.77-2.48-2.6l-15.82-9.27l1.4-2.39
	l16.08,9.42C461.5,569.14,462.7,570.67,462.98,572.47z M474.75,542.23l2.58,1.01l-3.47,8.88c-0.99,2.55-2.13,4.12-3.48,4.81
	c-0.63,0.32-1.34,0.48-2.12,0.48c-0.92,0-1.95-0.22-3.07-0.66l-17.84-6.97l1.01-2.58l17.84,6.97c1.24,0.48,2.22,0.53,2.93,0.14
	c0.52-0.29,1.31-1.07,2.13-3.17L474.75,542.23z M484.5,499.75c0.98,1.24,1.33,3.01,1.04,5.29l-1.31,10.36l-2.75-0.35l1.31-10.36
	c0.18-1.42,0.05-2.45-0.4-3.06c-0.44-0.6-1.16-0.96-2.19-1.09l-2.34-0.3c-1.12-0.15-1.95,0.04-2.54,0.56
	c-0.61,0.53-1,1.46-1.16,2.75l-0.45,3.6c-0.28,2.18-0.96,3.81-2.05,4.83c-1.13,1.07-2.66,1.48-4.54,1.25l-1.99-0.25
	c-2.03-0.26-3.52-1.08-4.43-2.43c-0.89-1.32-1.22-2.96-0.97-4.86l1.31-10.36l2.75,0.35l-1.31,10.39c-0.16,1.29,0,2.29,0.48,2.96
	c0.48,0.66,1.28,1.05,2.47,1.2l1.83,0.23c1.06,0.14,1.86-0.07,2.43-0.62c0.61-0.59,1.01-1.6,1.19-3.01l0.46-3.63
	c0.25-2.01,0.99-3.54,2.18-4.54c1.21-1.01,2.75-1.41,4.58-1.18l2.35,0.3C482.28,498.01,483.64,498.67,484.5,499.75z M486.12,475.21
	l-17.91,8.49h18.61v2.81l-24.24-0.04c-0.86,0-1.44-0.55-1.44-1.37c0-0.32,0.11-0.79,0.6-1.23c0.28-0.25,0.61-0.47,0.98-0.64
	l19.91-9.4l-20.35-9.45c-0.86-0.46-1.27-1.02-1.27-1.67c0-0.06,0-0.12,0.01-0.18l-0.01,0h0.01c0.07-0.58,0.51-1.19,1.56-1.19h24.24
	v2.77h-18.59l17.74,8.21c0.84,0.54,0.99,1.14,0.99,1.56C486.95,474.45,486.65,474.94,486.12,475.21z M461.28,448.32h25.54v2.77
	h-25.54V448.32z M461.28,435.27h19.15c1.33,0,2.26-0.31,2.78-0.93c0.38-0.46,0.84-1.47,0.84-3.73v-9.57h2.77v9.54
	c0,2.73-0.49,4.61-1.49,5.74c-1.01,1.14-2.66,1.72-4.9,1.72h-19.15V435.27z M464.05,396.43v10.63c0,1.2,0.29,2.07,0.89,2.64
	c0.6,0.58,1.45,0.86,2.6,0.86h5.3v-14.12l2.78,0.08v14.04h5c1.1,0,1.93-0.29,2.54-0.9c0.61-0.61,0.9-1.45,0.9-2.57v-10.59h2.77
	v10.72c0,1.89-0.57,3.39-1.68,4.48c-1.11,1.08-2.58,1.63-4.37,1.63h-13.23c-1.9,0-3.4-0.5-4.47-1.5c-1.18-1.1-1.78-2.73-1.78-4.85
	v-10.55H464.05z M108.13,336.43c-3.18-0.56-5.47-1.97-6.81-4.2c-1.3-2.15-1.69-4.74-1.17-7.7l2.51-14.25
	c0.08-0.44,0.33-0.84,0.7-1.09c0.37-0.26,0.82-0.36,1.27-0.28l1.75,0.31c0.92,0.16,1.54,1.04,1.38,1.96l-2.51,14.3
	c-0.63,3.59,0.44,5.29,3.71,5.87l2.73,0.48c2.05,0.36,4.26,0.08,5.11-4.76l0.95-5.41c0.55-3.12,1.82-5.46,3.79-6.95
	c2.01-1.52,4.48-2.03,7.35-1.53l3.49,0.61c2.87,0.5,4.97,1.67,6.26,3.45c1.46,2.03,1.88,4.85,1.26,8.38l-2.5,14.25
	c-0.08,0.44-0.33,0.84-0.7,1.09c-0.29,0.2-0.63,0.31-0.97,0.31c-0.1,0-0.2-0.01-0.29-0.02l-1.75-0.31
	c-0.92-0.16-1.54-1.04-1.38-1.96l2.5-14.25c0.35-1.96,0.24-3.43-0.3-4.25c-0.53-0.81-1.47-1.32-2.87-1.57l-3.49-0.61
	c-1.5-0.27-2.63-0.09-3.44,0.55c-0.85,0.67-1.45,1.93-1.76,3.73l-0.94,5.35c-1.63,9.24-7.51,9.63-10.89,9.04L108.13,336.43z
	 M114.08,283.71c-0.97-2.38-0.75-5.11,0.64-8.13l6.15-13.28c0.39-0.85,1.4-1.22,2.25-0.83l1.62,0.75c0.41,0.19,0.72,0.53,0.88,0.95
	c0.16,0.42,0.14,0.89-0.05,1.3l-6.2,13.39c-0.7,1.51-0.85,2.74-0.45,3.75c0.41,1.04,1.3,1.87,2.74,2.54l6.75,3.13l8.17-17.65
	c0.19-0.41,0.54-0.74,0.98-0.89c0.44-0.15,0.91-0.12,1.32,0.08l1.59,0.79c0.82,0.41,1.17,1.4,0.78,2.23l-8.15,17.6l6.35,2.94
	c1.37,0.64,2.56,0.75,3.64,0.36c1.08-0.39,1.92-1.27,2.57-2.67l6.17-13.33c0.19-0.41,0.53-0.72,0.95-0.88s0.89-0.14,1.29,0.05
	l1.61,0.75c0.85,0.39,1.22,1.4,0.83,2.25l-6.26,13.51c-1.25,2.7-3.07,4.48-5.4,5.3c-0.95,0.33-1.92,0.5-2.91,0.5
	c-1.44,0-2.93-0.35-4.45-1.05l-18.01-8.34C116.78,287.59,114.97,285.87,114.08,283.71z M135.74,241.56
	c-0.72-0.6-0.83-1.66-0.23-2.38l13.57-16.48c0.49-0.6,1.11-0.99,1.83-1.17c0.9-0.23,1.8,0,2.56,0.62c0.59,0.49,1.01,1.17,1.26,2.01
	l10.18,33.04l11.47-13.93c0.6-0.72,1.66-0.82,2.38-0.23l1.37,1.13c0.35,0.29,0.56,0.7,0.61,1.14c0.04,0.45-0.09,0.89-0.38,1.24
	l-13.18,16.01c-0.96,1.17-1.92,1.79-2.92,1.89c-0.09,0.01-0.18,0.01-0.28,0.01c-0.65,0-1.27-0.23-1.81-0.67
	c-0.5-0.41-0.89-1-1.2-1.8l-10.23-33.2l-11.25,13.67c-0.29,0.35-0.7,0.57-1.14,0.61c-0.44,0.05-0.9-0.09-1.24-0.38L135.74,241.56z
	 M187.8,235.46c0.14,0.54,0.53,0.98,1.05,1.18c0.19,0.07,0.39,0.11,0.59,0.11c0.35,0,0.69-0.11,0.98-0.31l1.82-1.29
	c0.58-0.41,0.84-1.14,0.66-1.82l-2.64-9.8l13.04-9.39l8.51,5.56c0.58,0.38,1.35,0.36,1.92-0.04l1.73-1.25
	c0.45-0.33,0.72-0.86,0.7-1.42c-0.02-0.56-0.31-1.08-0.78-1.38l-31.73-20.31c-1.92-1.22-3.35-0.46-3.88-0.09
	c-1.16,0.84-1.58,2.21-1.15,3.71L187.8,235.46z M184.63,201.94l13.95,9.23l-9.67,6.96L184.63,201.94z M211.73,178.63
	c-0.37-0.42-0.52-0.99-0.38-1.54s0.53-0.99,1.06-1.18l1.8-0.66c0.65-0.24,1.39-0.06,1.85,0.46l21.24,23.83l0.47-31.9
	c0.01-0.7,0.44-1.32,1.1-1.56l1.81-0.68c0.53-0.2,1.12-0.12,1.57,0.2c0.46,0.32,0.73,0.85,0.72,1.41l-0.66,37.06
	c-0.01,0.89-0.04,3.27-1.84,3.95c-0.28,0.1-0.55,0.15-0.81,0.15c-1.46,0-2.67-1.37-3.17-1.94L211.73,178.63z M261.77,200.42
	c0.06,0,0.12,0,0.18-0.01l2.22-0.23c0.71-0.07,1.29-0.58,1.46-1.27l2.48-9.84l15.97-1.82l4.71,9.01c0.32,0.62,0.96,0.98,1.69,0.9
	l2.12-0.24c0.56-0.06,1.05-0.4,1.31-0.9c0.26-0.5,0.26-1.09,0-1.59l-17.75-33.22c-1.07-2-2.69-2.04-3.34-1.97
	c-1.42,0.16-2.46,1.16-2.81,2.67l-9.87,36.37c-0.14,0.54-0.02,1.12,0.35,1.54C260.8,200.2,261.28,200.42,261.77,200.42z
	 M269.57,183.7l4.18-16.22l7.66,14.87L269.57,183.7z M308.46,197.69l1.76,0.28c0.43,0.07,0.9-0.04,1.26-0.3
	c0.36-0.26,0.61-0.66,0.68-1.11l1.89-11.93l15.27,15.98c0.25,0.26,0.58,0.44,0.94,0.5l3.03,0.51c0.1,0.02,0.19,0.02,0.28,0.02
	c0.62,0,1.2-0.34,1.5-0.9c0.34-0.65,0.23-1.44-0.28-1.97l-14.04-14.63l7.37,1.17c2.81,0.45,5.26-0.04,7.24-1.46
	c2-1.42,3.24-3.55,3.68-6.32l0.76-4.78c0.48-3.05-0.06-5.61-1.61-7.59c-1.52-1.95-3.9-3.2-7.07-3.7l-16.51-2.62
	c-0.44-0.07-0.9,0.04-1.26,0.3c-0.36,0.26-0.61,0.66-0.68,1.11l-5.62,35.49C306.91,196.68,307.54,197.55,308.46,197.69z
	 M330.32,166.58c1.77,0.28,3.02,0.87,3.73,1.77c0.68,0.86,0.91,1.98,0.68,3.43l-0.82,5.15c-0.18,1.14-0.69,2.02-1.57,2.68
	c-0.85,0.64-1.99,0.84-3.47,0.61l-13.55-2.15c-0.08-0.01-0.16-0.02-0.23-0.03l2.14-13.52L330.32,166.58z M378.59,218.16
	c-0.38-2.11,0.45-4.59,2.53-7.6l11.37-16.4c1.71-2.46,3.71-3.92,5.95-4.35c2.26-0.43,4.79,0.32,7.53,2.22l12.24,8.48
	c0.37,0.26,0.62,0.65,0.7,1.09c0.08,0.44-0.02,0.9-0.28,1.27l-1.02,1.46c-0.53,0.77-1.58,0.96-2.36,0.42l-12.19-8.45
	c-1.94-1.34-3.06-1.5-3.67-1.38c-0.88,0.16-1.75,0.85-2.58,2.05l-11.39,16.43c-1.39,2-1.52,3.03-1.48,3.47
	c0.1,1,1.19,2.27,3.07,3.57l11.65,8.08c0.77,0.53,0.96,1.59,0.43,2.36l-1.01,1.46c-0.25,0.37-0.65,0.62-1.09,0.7
	c-0.1,0.02-0.2,0.03-0.3,0.03c-0.34,0-0.68-0.1-0.97-0.3l-11.65-8.08C380.76,222.41,378.97,220.27,378.59,218.16z M407.38,239.45
	c-0.53,0.18-0.94,0.6-1.09,1.14c-0.15,0.54-0.03,1.12,0.32,1.55l1.43,1.72c0.46,0.55,1.21,0.76,1.87,0.51l9.56-3.39l10.37,12.28
	l-4.89,8.92c-0.34,0.61-0.26,1.37,0.19,1.91l1.38,1.63c0.32,0.38,0.8,0.6,1.29,0.6c0.06,0,0.12,0,0.18-0.01
	c0.56-0.06,1.05-0.39,1.32-0.88l17.81-33.2c1.07-2.01,0.2-3.38-0.22-3.87c-0.93-1.1-2.33-1.41-3.79-0.86L407.38,239.45z
	 M424.75,239.22l15.82-5.52l-8.13,14.62L424.75,239.22z M435.44,277.35l25.93-12.19c2.04-0.96,4.27-1.01,6.65-0.16
	c2.55,0.92,4.45,2.68,5.65,5.24l6.38,13.57c0.19,0.41,0.21,0.87,0.06,1.3c-0.15,0.42-0.47,0.77-0.87,0.96l-1.61,0.76
	c-0.85,0.4-1.86,0.03-2.25-0.81l-6.27-13.34c-0.65-1.38-1.53-2.27-2.69-2.72c-1.15-0.44-2.13-0.44-3.11,0.02l-7.29,3.43l8.32,17.69
	c0.19,0.41,0.21,0.87,0.06,1.3c-0.15,0.42-0.47,0.77-0.87,0.96l-1.61,0.76c-0.23,0.11-0.48,0.16-0.72,0.16
	c-0.64,0-1.25-0.36-1.53-0.97l-8.32-17.69l-13.69,6.44c-0.41,0.19-0.88,0.21-1.3,0.06c-0.42-0.15-0.77-0.47-0.96-0.87l-0.76-1.61
	C434.23,278.76,434.59,277.75,435.44,277.35z M485.36,310.73c2.17,1.39,3.56,3.75,4.16,7.02l2.62,14.4c0.17,0.92-0.44,1.8-1.36,1.97
	l-1.75,0.32c-0.44,0.08-0.9-0.02-1.27-0.27c-0.37-0.26-0.62-0.65-0.7-1.09l-2.64-14.52c-0.3-1.64-0.89-2.72-1.79-3.33
	c-0.93-0.62-2.14-0.78-3.7-0.5l-7.32,1.33l3.48,19.13c0,0,0,0,0,0l0,0.22c0.02,0.38-0.06,0.75-0.28,1.06
	c-0.27,0.37-0.67,0.62-1.12,0.69l-1.76,0.27c-0.91,0.13-1.76-0.47-1.92-1.37l-3.47-19.08l-6.88,1.25c-1.49,0.27-2.53,0.86-3.18,1.8
	c-0.65,0.94-0.84,2.14-0.56,3.66l2.63,14.45c0.08,0.44-0.02,0.9-0.27,1.27c-0.26,0.37-0.65,0.62-1.09,0.7l-1.75,0.32
	c-0.1,0.02-0.2,0.03-0.3,0.03c-0.34,0-0.68-0.1-0.96-0.3c-0.37-0.26-0.62-0.65-0.7-1.09l-2.66-14.65c-0.53-2.92-0.07-5.43,1.36-7.45
	c1.43-2.01,3.56-3.28,6.33-3.79l19.53-3.55C480.92,309.11,483.4,309.48,485.36,310.73z M120.48,378.03c-4.63,0-8.39-3.76-8.39-8.39
	c0-4.63,3.76-8.39,8.39-8.39c4.63,0,8.39,3.76,8.39,8.39C128.87,374.28,125.11,378.03,120.48,378.03z M330.41,414.42
	c11.85,0,22.89,5.87,29.54,15.7c0,0.01,0,0.02,0.01,0.02c0.12,0.18,0.18,0.37,0.24,0.57c0.02,0.06,0.06,0.12,0.07,0.19
	c0.08,0.41,0,0.82-0.17,1.22c-0.05,0.12-0.07,0.24-0.14,0.35c-0.01,0.01-0.01,0.02-0.01,0.03c-3.03,4.49-6.98,8.13-11.5,10.79
	l2.55,3.63c0.67,0.96,0.44,2.28-0.51,2.95c-0.37,0.26-0.8,0.39-1.22,0.39c-0.67,0-1.32-0.31-1.73-0.9l-2.91-4.12
	c-3.79,1.65-7.88,2.66-12.1,2.91v4.59c0,1.17-0.95,2.12-2.12,2.12c-1.17,0-2.12-0.95-2.12-2.12v-4.62
	c-4.13-0.25-8.18-1.21-11.95-2.84l-2.87,4.08c-0.41,0.59-1.07,0.9-1.73,0.9c-0.42,0-0.85-0.13-1.22-0.39
	c-0.96-0.67-1.18-1.99-0.51-2.95l2.5-3.55c-1.67-0.97-3.26-2.06-4.76-3.29c-0.9-0.74-1.03-2.08-0.29-2.98
	c0.74-0.9,2.08-1.03,2.98-0.29c1.96,1.61,4.1,2.96,6.37,4.05c0.01,0.01,0.03,0.01,0.04,0.02c0,0,0,0,0.01,0.01
	c4.2,2.01,8.83,3.09,13.55,3.09c9.95,0,19.25-4.71,25.17-12.65c-5.92-7.95-15.22-12.66-25.17-12.66
	c-17.31,0-31.38,14.08-31.38,31.38v52.67c0,1.17-0.95,2.12-2.12,2.12s-2.12-0.95-2.12-2.12v-52.67
	C294.79,430.4,310.77,414.42,330.41,414.42z M323.73,520.84c0.71,0.93,0.54,2.26-0.38,2.97c-3.88,2.99-8.53,4.57-13.44,4.57
	c-4.4,0-8.59-1.27-12.21-3.69c-3.6,2.39-7.78,3.65-12.15,3.65c-4.94,0-9.6-1.6-13.49-4.61c-0.92-0.72-1.09-2.05-0.38-2.97
	c0.71-0.92,2.05-1.09,2.97-0.38c3.15,2.44,6.91,3.73,10.9,3.73c3.97,0,7.72-1.28,10.86-3.69c0.41-0.32,0.92-0.47,1.44-0.43
	c0.42,0.03,0.83,0.18,1.16,0.44c3.15,2.44,6.92,3.73,10.9,3.73c3.97,0,7.72-1.28,10.86-3.69
	C321.69,519.74,323.01,519.91,323.73,520.84z M315.46,534.45c0.37,1.11-0.23,2.31-1.34,2.68c-5.51,1.83-11.28,2.76-17.14,2.76
	c-5.9,0-11.7-0.94-17.24-2.79c-1.11-0.37-1.71-1.57-1.34-2.68c0.37-1.11,1.58-1.7,2.68-1.34c10.18,3.41,21.51,3.42,31.7,0.03
	C313.89,532.74,315.09,533.35,315.46,534.45z"/>
</svg>
